<?xml version="1.0" standalone="no"?><!DOCTYPE svg PUBLIC "-//W3C//DTD SVG 1.1//EN" "http://www.w3.org/Graphics/SVG/1.1/DTD/svg11.dtd"><svg width="128" height="128" viewBox="0 0 128 128" version="1.1" xmlns="http://www.w3.org/2000/svg" xmlns:xlink="http://www.w3.org/1999/xlink"><defs><style type="text/css"><![CDATA[

]]></style></defs><g class="transform-group"><g transform="scale(0.125, 0.125)"><path d="M1010.336 408.448l-20.768 0-456.544-269.76-41.504 0-456.544 269.76-20.736 0 0-58.432 145.28-83.264 0-128.064c0-14.272 5.76-20.768 20.768-20.768l41.504 0c15.008 0 20.768 6.496 20.768 20.768l0 80.48 249.024-142.752 41.504 0 477.312 272.576 0 59.456zM491.552 200.928l41.504 0 435.808 249.024 0 394.272c0 63.2-55.52 103.744-120.576 103.744l-675.232 0c-65.024 0-117.76-51.232-117.76-114.432l0.48-383.616 435.776-249.024zM367.04 864.992l290.528 0 0-352.768-290.528 0 0 352.768z" fill="#eb4f38"></path></g></g></svg>